<?xml version="1.0" encoding="UTF-8"?>
<svg width="22px" height="29px" viewBox="0 0 22 29" version="1.1" xmlns="http://www.w3.org/2000/svg" xmlns:xlink="http://www.w3.org/1999/xlink">
    <!-- Generator: Sketch 63.1 (92452) - https://sketch.com -->
    <title>Shape</title>
    <desc>Created with Sketch.</desc>
    <g id="Services" stroke="none" stroke-width="1" fill="none" fill-rule="evenodd">
        <g id="Individual-service-page" transform="translate(-1246.000000, -1443.000000)" fill="#558200" fill-rule="nonzero">
            <g id="download-(1)-copy" transform="translate(1246.000000, 1443.000000)">
                <path d="M9.86952083,28.4148954 C1.54515625,16.4841737 0,15.259717 0,10.8749973 C0,4.86888358 4.92484896,0 11,0 C17.075151,0 22,4.86888358 22,10.8749973 C22,15.259717 20.4548437,16.4841737 12.1304792,28.4148954 C11.5842031,29.1950632 10.4157396,29.1950065 9.86952083,28.4148954 Z M11,15.4062462 C13.5313177,15.4062462 15.5833333,13.3775495 15.5833333,10.8749973 C15.5833333,8.37244522 13.5313177,6.34374845 11,6.34374845 C8.46868229,6.34374845 6.41666667,8.37244522 6.41666667,10.8749973 C6.41666667,13.3775495 8.46868229,15.4062462 11,15.4062462 Z" id="Shape"></path>
            </g>
        </g>
    </g>
</svg>